<svg width="64" height="64" viewBox="0 0 64 64" fill="none" xmlns="http://www.w3.org/2000/svg">
<rect width="64" height="64" rx="32" fill="#EAF9FF"/>
<g clip-path="url(#clip0_144_224)">
<path d="M47.8425 32.4181L44.3766 27.3131L47.8425 22.2082C48.0045 21.9647 48.0438 21.6607 47.9495 21.3842C47.8543 21.1078 47.6364 20.8908 47.359 20.7993L36.0466 17.0493C35.6419 16.9128 35.2043 17.0667 34.9699 17.4182L32 21.8731L29.03 17.4182C28.7938 17.0648 28.3525 16.9119 27.9533 17.0493L16.6409 20.7993C16.3635 20.8908 16.1456 21.1078 16.0504 21.3842C15.9561 21.6607 15.9955 21.9647 16.1575 22.2082L19.6234 27.3132L16.1576 32.4181C15.9955 32.6616 15.9561 32.9656 16.0505 33.2421C16.1456 33.5186 16.3636 33.7356 16.641 33.8271L27.9534 37.5771C28.3515 37.7109 28.7944 37.5615 29.03 37.2081L32 32.7532L34.97 37.2081C35.2059 37.5619 35.649 37.7109 36.0467 37.5771L47.3591 33.8271C47.6365 33.7355 47.8544 33.5185 47.9496 33.2421C48.0439 32.9656 48.0045 32.6617 47.8425 32.4181ZM32 30.0753L23.7136 27.3132L32 24.5511L40.2864 27.3132L32 30.0753Z" fill="#007EA7"/>
<path d="M36.6399 39.3561C35.4599 39.752 34.1258 39.3226 33.4099 38.2483L32.0001 36.1335L30.5901 38.2483C29.8757 39.3206 28.5431 39.7538 27.3556 39.3542L19.8126 36.8401V42.3132C19.8126 42.7169 20.0708 43.0749 20.4535 43.2022L31.6979 46.9503C31.7318 46.9622 31.7657 46.9714 31.7995 46.9787C31.7995 46.9787 31.8005 46.9787 31.8005 46.9796H31.8014C31.8673 46.9934 31.9342 47.0007 32.0001 47.0007C32.0706 47.0007 32.1401 46.9925 32.2097 46.9769C32.2408 46.9696 32.271 46.9613 32.3013 46.9513L43.5466 43.2022C43.9292 43.0749 44.1874 42.7169 44.1874 42.3132V36.8402L36.6399 39.3561Z" fill="#007EA7"/>
</g>
<defs>
<clipPath id="clip0_144_224">
<rect width="32" height="32" fill="white" transform="translate(16 16)"/>
</clipPath>
</defs>
</svg>
