<svg width="15" height="10" viewBox="0 0 15 10" fill="none" xmlns="http://www.w3.org/2000/svg">
<path d="M0.330173 0.844159C0.541647 0.623794 0.828428 0.5 1.12745 0.5C1.42648 0.5 1.71326 0.623794 1.92473 0.844159L7.50681 6.66269L13.0889 0.84416C13.3016 0.63004 13.5864 0.51156 13.8821 0.514238C14.1778 0.516916 14.4606 0.640538 14.6697 0.858478C14.8788 1.07642 14.9974 1.37124 15 1.67944C15.0025 1.98764 14.8889 2.28457 14.6834 2.50626L8.30409 9.15584C8.09261 9.37621 7.80583 9.5 7.50681 9.5C7.20778 9.5 6.921 9.37621 6.70953 9.15584L0.330173 2.50626C0.118763 2.28583 -6.49944e-08 1.9869 -5.137e-08 1.67521C-3.77456e-08 1.36352 0.118763 1.06459 0.330173 0.844159Z" fill="#00171F"/>
</svg>
