<svg width="64" height="64" viewBox="0 0 64 64" fill="none" xmlns="http://www.w3.org/2000/svg">
<rect width="64" height="64" rx="32" fill="#003459"/>
<path d="M28.0126 27.7358C27.4625 27.7358 27.0149 28.1834 27.0149 28.7335C27.0149 29.2836 27.4625 29.7311 28.0126 29.7311H29.0103V28.7335C29.0103 28.1834 28.5627 27.7358 28.0126 27.7358Z" fill="white"/>
<path d="M35.9876 27.7358C35.4375 27.7358 34.99 28.1834 34.99 28.7335V29.7311H35.9876C36.5377 29.7311 36.9853 29.2836 36.9853 28.7335C36.9853 28.1834 36.5377 27.7358 35.9876 27.7358Z" fill="white"/>
<path d="M32.9983 31.7229H31.0027V40.3617H32.9983V31.7229Z" fill="white"/>
<path d="M38.8559 46.6738H25.145V49H38.8559V46.6738Z" fill="white"/>
<path d="M40.0575 18.4143C38.0261 16.3165 35.3029 15.1064 32.3893 15.0068C29.3327 14.9024 26.4393 16.0005 24.2426 18.0989C22.0487 20.1947 20.821 23.0299 20.7855 26.0825C20.7565 28.5814 21.5323 30.9547 23.0289 32.9461C24.4464 34.8323 25.1197 37.1926 25.1434 40.3619H29.0101V31.7233H28.0124C26.3638 31.7233 25.0226 30.382 25.0226 28.7334C25.0226 27.0848 26.3638 25.7436 28.0124 25.7436C29.661 25.7436 31.0023 27.0848 31.0023 28.7334V29.7311H32.9977V28.7334C32.9977 27.0848 34.3389 25.7436 35.9875 25.7436C37.6361 25.7436 38.9774 27.0848 38.9774 28.7334C38.9774 30.382 37.6361 31.7233 35.9875 31.7233H34.9899V40.3619H38.857C38.8901 37.192 39.5707 34.8215 40.9918 32.9183C42.4464 30.9704 43.2152 28.6526 43.2152 26.2153C43.2152 23.2875 42.0938 20.5171 40.0575 18.4143Z" fill="white"/>
<path d="M38.8559 42.3542H25.145V44.6818H38.8559V42.3542Z" fill="white"/>
</svg>
