<svg width="100" height="18" viewBox="0 0 100 18" fill="none" xmlns="http://www.w3.org/2000/svg">
<rect width="18" height="18" fill="#03B57A"/>
<g clip-path="url(#clip0_144_258)">
<path d="M8.11766 4.53182C7.72049 5.71 7.32332 6.88819 7.24519 7.13656L7.09544 7.60146L4.23711 7.6142L1.37878 7.63331L3.6381 9.21908C4.8817 10.0916 5.91044 10.8431 5.92997 10.8813C5.94299 10.9258 5.57837 12.104 5.10958 13.4987C4.64079 14.8935 4.26966 16.0398 4.28269 16.0525C4.30222 16.078 7.70096 13.7025 13.4632 9.64577L16.315 7.63331L13.4567 7.6142L10.5983 7.60146L10.4486 7.13656C10.2337 6.46786 8.86643 2.41109 8.8534 2.39836C8.84689 2.38562 8.51483 3.34727 8.11766 4.53182Z" fill="#FEFEFE"/>
<path d="M10.423 12.5041C9.60258 12.7079 8.92544 12.8863 8.91242 12.899C8.8994 12.9117 9.90209 13.6441 11.1457 14.523C12.3893 15.4082 13.4115 16.1151 13.4245 16.1024C13.4376 16.096 13.1511 15.1917 12.7865 14.1026C12.2656 12.5487 12.0963 12.122 12.0117 12.1284C11.9531 12.1284 11.2368 12.3003 10.423 12.5041Z" fill="#FEFEFE"/>
</g>
<rect width="18" height="18" transform="translate(20.3116)" fill="#03B57A"/>
<g clip-path="url(#clip1_144_258)">
<path d="M28.4345 4.53182C28.0373 5.71 27.6402 6.88819 27.562 7.13656L27.4123 7.60146L24.5539 7.6142L21.6956 7.63331L23.9549 9.21908C25.1985 10.0916 26.2273 10.8431 26.2468 10.8813C26.2598 10.9258 25.8952 12.104 25.4264 13.4987C24.9576 14.8935 24.5865 16.0398 24.5995 16.0525C24.6191 16.078 28.0178 13.7025 33.78 9.64577L36.6318 7.63331L33.7735 7.6142L30.9152 7.60146L30.7654 7.13656C30.5506 6.46786 29.1833 2.41109 29.1702 2.39836C29.1637 2.38562 28.8317 3.34727 28.4345 4.53182Z" fill="#FEFEFE"/>
<path d="M30.7398 12.5041C29.9194 12.7079 29.2423 12.8863 29.2293 12.899C29.2162 12.9117 30.2189 13.6441 31.4625 14.523C32.7061 15.4082 33.7283 16.1151 33.7414 16.1024C33.7544 16.096 33.4679 15.1917 33.1033 14.1026C32.5824 12.5487 32.4131 12.122 32.3285 12.1284C32.2699 12.1284 31.5537 12.3003 30.7398 12.5041Z" fill="#FEFEFE"/>
</g>
<rect width="18" height="18" transform="translate(40.6231)" fill="#03B57A"/>
<g clip-path="url(#clip2_144_258)">
<path d="M48.7381 4.53182C48.341 5.71 47.9438 6.88819 47.8657 7.13656L47.7159 7.60146L44.8576 7.6142L41.9993 7.63331L44.2586 9.21908C45.5022 10.0916 46.5309 10.8431 46.5505 10.8813C46.5635 10.9258 46.1989 12.104 45.7301 13.4987C45.2613 14.8935 44.8901 16.0398 44.9032 16.0525C44.9227 16.078 48.3214 13.7025 54.0837 9.64577L56.9355 7.63331L54.0772 7.6142L51.2188 7.60146L51.0691 7.13656C50.8542 6.46786 49.4869 2.41109 49.4739 2.39836C49.4674 2.38562 49.1353 3.34727 48.7381 4.53182Z" fill="#FEFEFE"/>
<path d="M51.0436 12.5041C50.2232 12.7079 49.5461 12.8863 49.5331 12.899C49.5201 12.9117 50.5228 13.6441 51.7664 14.523C53.01 15.4082 54.0322 16.1151 54.0452 16.1024C54.0582 16.096 53.7717 15.1917 53.4071 14.1026C52.8862 12.5487 52.717 12.122 52.6323 12.1284C52.5737 12.1284 51.8575 12.3003 51.0436 12.5041Z" fill="#FEFEFE"/>
</g>
<rect width="18" height="18" transform="translate(60.9347)" fill="#03B57A"/>
<g clip-path="url(#clip3_144_258)">
<path d="M69.0497 4.53182C68.6526 5.71 68.2554 6.88819 68.1773 7.13656L68.0275 7.60146L65.1692 7.6142L62.3109 7.63331L64.5702 9.21908C65.8138 10.0916 66.8425 10.8431 66.862 10.8813C66.8751 10.9258 66.5104 12.104 66.0417 13.4987C65.5729 14.8935 65.2017 16.0398 65.2148 16.0525C65.2343 16.078 68.633 13.7025 74.3953 9.64577L77.2471 7.63331L74.3887 7.6142L71.5304 7.60146L71.3807 7.13656C71.1658 6.46786 69.7985 2.41109 69.7855 2.39836C69.779 2.38562 69.4469 3.34727 69.0497 4.53182Z" fill="#FEFEFE"/>
<path d="M71.355 12.5041C70.5347 12.7079 69.8575 12.8863 69.8445 12.899C69.8315 12.9117 70.8342 13.6441 72.0778 14.523C73.3214 15.4082 74.3436 16.1151 74.3566 16.1024C74.3696 16.096 74.0831 15.1917 73.7185 14.1026C73.1976 12.5487 73.0284 12.122 72.9437 12.1284C72.8851 12.1284 72.1689 12.3003 71.355 12.5041Z" fill="#FEFEFE"/>
</g>
<rect width="18" height="18" transform="translate(81.2462)" fill="#03B57A"/>
<g clip-path="url(#clip4_144_258)">
<path d="M89.3639 4.53182C88.9667 5.71 88.5695 6.88819 88.4914 7.13656L88.3417 7.60146L85.4833 7.6142L82.625 7.63331L84.8843 9.21908C86.1279 10.0916 87.1567 10.8431 87.1762 10.8813C87.1892 10.9258 86.8246 12.104 86.3558 13.4987C85.887 14.8935 85.5159 16.0398 85.5289 16.0525C85.5484 16.078 88.9472 13.7025 94.7094 9.64577L97.5612 7.63331L94.7029 7.6142L91.8446 7.60146L91.6948 7.13656C91.4799 6.46786 90.1126 2.41109 90.0996 2.39836C90.0931 2.38562 89.761 3.34727 89.3639 4.53182Z" fill="#FEFEFE"/>
<path d="M91.6692 12.5041C90.8488 12.7079 90.1717 12.8863 90.1586 12.899C90.1456 12.9117 91.1483 13.6441 92.3919 14.523C93.6355 15.4082 94.6577 16.1151 94.6708 16.1024C94.6838 16.096 94.3973 15.1917 94.0327 14.1026C93.5118 12.5487 93.3425 12.122 93.2579 12.1284C93.1993 12.1284 92.4831 12.3003 91.6692 12.5041Z" fill="#FEFEFE"/>
</g>
<defs>
<clipPath id="clip0_144_258">
<rect width="15.0404" height="13.8834" fill="white" transform="translate(1.32635 2.31445)"/>
</clipPath>
<clipPath id="clip1_144_258">
<rect width="15.0404" height="13.8834" fill="white" transform="translate(21.6432 2.31445)"/>
</clipPath>
<clipPath id="clip2_144_258">
<rect width="15.0404" height="13.8834" fill="white" transform="translate(41.9495 2.31445)"/>
</clipPath>
<clipPath id="clip3_144_258">
<rect width="15.0404" height="13.8834" fill="white" transform="translate(62.2637 2.31445)"/>
</clipPath>
<clipPath id="clip4_144_258">
<rect width="15.0404" height="13.8834" fill="white" transform="translate(82.5726 2.31445)"/>
</clipPath>
</defs>
</svg>
