<svg width="64" height="64" viewBox="0 0 64 64" fill="none" xmlns="http://www.w3.org/2000/svg">
<rect width="64" height="64" rx="32" fill="#EAF9FF"/>
<path d="M20.7499 17C19.3866 17 18.2499 18.1366 18.2499 19.5V45.75C18.25 46.4403 18.8096 46.9999 19.4999 47H34.4999C35.1903 46.9999 35.7499 46.4403 35.7499 45.75V40.125C35.7499 39.7798 36.0298 39.5 36.3749 39.5H36.9999C37.7051 39.5 38.2499 40.0448 38.2499 40.75V42C38.2499 44.0563 39.9437 45.75 41.9999 45.75C44.0562 45.75 45.7499 44.0563 45.7499 42V25.75C45.7499 24.5708 45.1943 23.4571 44.2509 22.7495L40.2495 19.749C39.6387 19.2911 38.8581 19.5126 38.499 20.0005C38.0895 20.5568 38.1974 21.3372 38.7504 21.751L40.2495 22.874C40.5647 23.1102 40.7502 23.4811 40.7499 23.875V27C40.7499 28.153 41.5588 29.1419 42.6323 29.4219C42.9655 29.5088 43.2499 29.7798 43.2499 30.125V42C43.2499 42.7052 42.7051 43.25 41.9999 43.25C41.2948 43.25 40.7499 42.7052 40.7499 42V40.75C40.7499 38.6937 39.0562 37 36.9999 37H36.3749C36.0298 37 35.7499 36.7202 35.7499 36.375V19.5C35.7499 18.1366 34.6133 17 33.2499 17L20.7499 17ZM21.3749 19.5H32.6249C32.9712 19.5 33.2499 19.7787 33.2499 20.125V28.875C33.2499 29.2212 32.9712 29.5 32.6249 29.5H21.3749C21.0287 29.5 20.7499 29.2212 20.7499 28.875V20.125C20.7499 19.7787 21.0287 19.5 21.3749 19.5Z" fill="#007EA7"/>
</svg>
