<svg width="64" height="64" viewBox="0 0 64 64" fill="none" xmlns="http://www.w3.org/2000/svg">
<rect width="64" height="64" rx="32" fill="#EAF9FF"/>
<g clip-path="url(#clip0_144_216)">
<path fill-rule="evenodd" clip-rule="evenodd" d="M46.9999 32.4214C46.9999 30.0489 46.3862 27.8214 45.3112 25.8851C49.8937 15.5126 40.3999 17.0314 39.8712 17.1351C37.8599 17.5289 35.9999 18.1601 34.2837 18.9614C34.0289 18.9472 33.7738 18.9401 33.5187 18.9401C27.1124 18.9401 21.7499 23.4076 20.3774 29.3976C23.7549 25.6101 26.1174 24.0814 27.5324 23.4701C27.3074 23.6718 27.0858 23.8756 26.8674 24.0814L26.6549 24.2876C26.5108 24.4243 26.3683 24.5626 26.2274 24.7026L25.9824 24.9526C25.8574 25.0785 25.7345 25.2051 25.6137 25.3326L25.3587 25.6026C24.862 26.1329 24.3826 26.679 23.9212 27.2401C23.7482 27.4488 23.5773 27.6592 23.4087 27.8714L23.1587 28.1876L22.9299 28.4876L22.6724 28.8276L22.4974 29.0689C21.9894 29.7623 21.5025 30.4709 21.0374 31.1939L21.0349 31.1976C20.9191 31.3785 20.8066 31.5568 20.6974 31.7326L20.6799 31.7614C20.5699 31.9372 20.4637 32.1114 20.3612 32.2839L20.3499 32.3014C20.0724 32.7656 19.817 33.2085 19.5837 33.6301C18.3699 35.8301 17.7787 37.3676 17.7537 37.4589C13.9187 51.1664 25.8849 45.3776 27.5549 44.5139C29.4091 45.4294 31.4496 45.9043 33.5174 45.9014C39.3799 45.9014 44.3674 42.1601 46.2237 36.9351H39.1412C38.0924 38.7051 36.0749 39.9051 33.7562 39.9051C30.3599 39.9051 27.6062 37.3314 27.6062 34.1576H46.8887C46.9629 33.5885 46.9999 33.0106 46.9999 32.4214ZM44.4812 19.1551C45.6424 19.9389 46.5737 21.1676 44.9737 25.3126C43.4283 22.8265 41.1181 20.9088 38.3899 19.8476C39.6374 19.2451 42.7274 17.9714 44.4812 19.1551ZM19.8099 44.4864C18.8637 43.5164 18.6974 41.1551 20.7837 36.8514C21.8343 39.8594 23.9131 42.4 26.6537 44.0251C25.3037 44.7689 21.7162 46.4426 19.8099 44.4864ZM27.5749 30.4701C27.6824 27.3851 30.3687 24.9151 33.6674 24.9151C36.9674 24.9151 39.6512 27.3851 39.7599 30.4701H27.5749Z" fill="#007EA7"/>
</g>
<defs>
<clipPath id="clip0_144_216">
<rect width="30" height="30" fill="white" transform="translate(17 17)"/>
</clipPath>
</defs>
</svg>
