<svg width="60" height="60" viewBox="0 0 60 60" fill="none" xmlns="http://www.w3.org/2000/svg">
<path d="M39.825 41.6999H26.25L11.8125 56.1374C12.2063 56.2124 12.6187 56.2499 13.0313 56.2499H46.9688C50.5313 56.2499 53.4375 53.3437 53.4375 49.7812V20.5874H47.3625L39.825 28.1249C40.8562 28.1249 41.7 28.9687 41.7 29.9999C41.7 31.0312 40.8562 31.8749 39.825 31.8749H36.075L30 37.9499H39.825C40.8562 37.9499 41.7 38.7937 41.7 39.8249C41.7 40.8561 40.8562 41.6999 39.825 41.6999Z" fill="#007EA7"/>
<path d="M53.0493 4.29932L46.1306 11.2181L43.3688 8.68126L39.1125 4.78123V14.1375C39.1125 15.2356 39.784 16.1869 40.7419 16.6068L38.0332 19.3155C36.9981 18.5564 36.1795 17.5259 35.7563 16.2938C35.4937 15.6187 35.3625 14.8875 35.3625 14.1375V3.75H13.0313C9.46873 3.75 6.5625 6.65623 6.5625 10.2188V49.7812C6.5625 50.0917 6.62899 50.3803 6.67145 50.6772L4.29932 53.0493C3.56689 53.7817 3.56689 54.9683 4.29932 55.7007C4.66553 56.0669 5.14526 56.25 5.625 56.25C6.10474 56.25 6.58447 56.0669 6.95068 55.7007L55.7007 6.95068C56.4331 6.21826 56.4331 5.03174 55.7007 4.29932C54.9683 3.56689 53.7817 3.56689 53.0493 4.29932ZM24.2437 31.875H20.175C19.1438 31.875 18.3 31.0312 18.3 30C18.3 28.9688 19.1438 28.125 20.175 28.125H24.2437C25.275 28.125 26.1187 28.9688 26.1187 30C26.1187 31.0312 25.275 31.875 24.2437 31.875ZM30 22.05H20.175C19.1438 22.05 18.3 21.2062 18.3 20.175C18.3 19.1437 19.1438 18.3 20.175 18.3H30C31.0312 18.3 31.875 19.1437 31.875 20.175C31.875 21.2062 31.0312 22.05 30 22.05Z" fill="#007EA7"/>
</svg>
