<svg width="15" height="10" viewBox="0 0 15 10" fill="none" xmlns="http://www.w3.org/2000/svg">
<path d="M0.330173 9.15584C0.541647 9.37621 0.828428 9.5 1.12745 9.5C1.42648 9.5 1.71326 9.37621 1.92473 9.15584L7.50681 3.33731L13.0889 9.15584C13.3016 9.36996 13.5864 9.48844 13.8821 9.48576C14.1778 9.48308 14.4606 9.35946 14.6697 9.14152C14.8788 8.92358 14.9974 8.62876 15 8.32056C15.0025 8.01236 14.8889 7.71543 14.6834 7.49374L8.30409 0.844159C8.09261 0.623794 7.80583 0.5 7.50681 0.5C7.20778 0.5 6.921 0.623794 6.70953 0.844159L0.330173 7.49374C0.118763 7.71417 -6.49944e-08 8.0131 -5.137e-08 8.32479C-3.77456e-08 8.63648 0.118763 8.93541 0.330173 9.15584Z" fill="#00171F"/>
</svg>
