<svg width="60" height="60" viewBox="0 0 60 60" fill="none" xmlns="http://www.w3.org/2000/svg">
<path fill-rule="evenodd" clip-rule="evenodd" d="M1.875 29.7491H58.125V33.4856H30.8921L39.6343 46.7685H20.3657L29.1079 33.4856H1.875V29.7491ZM20.3657 50.1257H39.6343V53.2643H20.3657V50.1257ZM50.1452 8.38688C51.025 8.5963 51.8652 8.94505 52.6352 9.41919L54.2532 8.7006L56.1602 10.6076L55.4419 12.2251C55.9163 12.9953 56.265 13.8358 56.4743 14.7157L58.125 15.351V18.0478L56.4738 18.6833C56.2645 19.5631 55.9157 20.4033 55.4416 21.1733L56.1602 22.7913L54.2532 24.6983L52.6357 23.9799C51.8655 24.4542 51.025 24.803 50.145 25.0123L49.5096 26.663H46.8129L46.1774 25.0118C45.2977 24.8025 44.4574 24.4536 43.6874 23.9796L42.0694 24.6982L40.1624 22.7912L40.8807 21.1738C40.4064 20.4036 40.0577 19.5631 39.8483 18.6832L38.1976 18.0478V15.351L39.8486 14.7155C40.058 13.8356 40.4067 12.9954 40.8809 12.2254L40.1624 10.6075L42.0694 8.70048L43.6874 9.41907C44.4574 8.94493 45.2977 8.59618 46.1774 8.38677L46.813 6.7356H49.5098L50.1452 8.38688ZM48.1614 11.9961C45.5637 11.9961 43.4582 14.1016 43.4582 16.6995C43.4582 19.2972 45.5637 21.4027 48.1614 21.4027C50.7592 21.4027 52.8646 19.2972 52.8646 16.6995C52.8646 14.1016 50.7591 11.9961 48.1614 11.9961ZM13.8226 8.38688C14.7023 8.5963 15.5426 8.94505 16.3126 9.41919L17.9306 8.7006L19.8376 10.6076L19.1191 12.2251C19.5935 12.9953 19.9423 13.8358 20.1516 14.7157L21.8023 15.3511V18.0479L20.1511 18.6834C19.9418 19.5632 19.5929 20.4034 19.1189 21.1734L19.8375 22.7915L17.9305 24.6984L16.3131 23.98C15.5429 24.4543 14.7023 24.8031 13.8224 25.0124L13.187 26.6631H10.4903L9.85477 25.0119C8.97504 24.8026 8.1348 24.4538 7.36477 23.9797L5.74676 24.6983L3.83977 22.7913L4.55824 21.1739C4.08387 20.4038 3.73523 19.5632 3.52582 18.6833L1.875 18.0478V15.351L3.52594 14.7155C3.73535 13.8356 4.0841 12.9954 4.55824 12.2254L3.83977 10.6075L5.74676 8.70048L7.36477 9.41907C8.1348 8.94493 8.97504 8.59618 9.85477 8.38677L10.4904 6.7356H13.1872L13.8226 8.38688ZM11.8386 11.9961C9.24082 11.9961 7.13543 14.1016 7.13543 16.6995C7.13543 19.2972 9.24094 21.4027 11.8386 21.4027C14.4363 21.4027 16.5418 19.2972 16.5418 16.6995C16.542 14.1016 14.4364 11.9961 11.8386 11.9961Z" fill="#007EA7"/>
</svg>
