<svg width="233" height="240" viewBox="0 0 233 240" fill="none" xmlns="http://www.w3.org/2000/svg">
<path d="M156.705 37.4843C157.606 36.5831 158.219 35.4351 158.468 34.1854C158.716 32.9356 158.589 31.6402 158.101 30.4629C157.614 29.2855 156.789 28.2791 155.729 27.5708C154.67 26.8624 153.425 26.484 152.15 26.4833H135.876C134.615 26.4828 133.383 26.1126 132.33 25.4187C131.278 24.7247 130.453 23.7374 129.956 22.5789L122.092 4.21816C121.596 3.05908 120.771 2.07115 119.718 1.37687C118.666 0.682587 117.433 0.3125 116.172 0.3125C114.911 0.3125 113.678 0.682587 112.625 1.37687C111.573 2.07115 110.747 3.05908 110.251 4.21816L102.385 22.5789C101.889 23.7377 101.064 24.7253 100.012 25.4194C98.9593 26.1134 97.7265 26.4834 96.4659 26.4833H80.1932C78.9188 26.4837 77.6732 26.8619 76.6137 27.5701C75.5542 28.2782 74.7284 29.2846 74.2408 30.462C73.7531 31.6394 73.6255 32.9349 73.874 34.1848C74.1224 35.4348 74.7359 36.583 75.6368 37.4843L87.8267 49.6783C88.6138 50.4651 89.1836 51.4423 89.4807 52.5149C89.7777 53.5874 89.7918 54.7186 89.5215 55.7982L83.7606 78.8484C83.4542 80.0734 83.5145 81.3613 83.934 82.5522C84.3535 83.7432 85.1136 84.7846 86.12 85.5472C87.1264 86.3097 88.3346 86.7598 89.5946 86.8414C90.8546 86.9231 92.1108 86.6327 93.2072 86.0064L112.975 74.7053C113.948 74.1491 115.05 73.8565 116.171 73.8565C117.292 73.8565 118.393 74.1491 119.366 74.7053L139.136 86.0064C140.233 86.6327 141.489 86.923 142.749 86.8413C144.009 86.7596 145.217 86.3095 146.223 85.5469C147.229 84.7843 147.989 83.7428 148.408 82.5519C148.828 81.361 148.888 80.0732 148.581 78.8484L142.82 55.7982C142.55 54.7186 142.565 53.5875 142.862 52.5151C143.159 51.4426 143.728 50.4653 144.515 49.6783L156.705 37.4843Z" fill="white"/>
<path d="M12.617 87.9822L8.00993 106.423C7.76455 107.403 7.81253 108.433 8.14789 109.386C8.48326 110.339 9.09123 111.172 9.89622 111.782C10.7012 112.392 11.6677 112.752 12.6756 112.817C13.6835 112.882 14.6883 112.65 15.5652 112.148L31.3793 103.107C32.1582 102.663 33.0396 102.429 33.9364 102.429C34.8333 102.429 35.7147 102.663 36.4936 103.107L52.3098 112.148C53.1866 112.65 54.1913 112.882 55.1991 112.817C56.2069 112.752 57.1733 112.392 57.9782 111.782C58.783 111.172 59.3908 110.338 59.7259 109.386C60.061 108.433 60.1086 107.403 59.8629 106.423L55.2558 87.9822C55.04 87.1187 55.0513 86.214 55.2886 85.3561C55.526 84.4983 55.9814 83.7164 56.6104 83.0867L66.3635 73.3304C67.0842 72.6095 67.575 71.6912 67.7739 70.6915C67.9728 69.6917 67.8708 68.6554 67.4809 67.7136C67.091 66.7718 66.4306 65.9667 65.5832 65.4002C64.7359 64.8336 63.7395 64.5309 62.7202 64.5305H49.702C48.6931 64.5303 47.7064 64.2342 46.8642 63.6787C46.022 63.1233 45.3613 62.3329 44.9639 61.4056L38.6724 46.7185C38.2756 45.7912 37.6153 45.0008 36.7734 44.4453C35.9315 43.8899 34.9451 43.5938 33.9364 43.5938C32.9278 43.5938 31.9414 43.8899 31.0995 44.4453C30.2576 45.0008 29.5972 45.7912 29.2004 46.7185L22.909 61.4059C22.5116 62.3332 21.8509 63.1236 21.0087 63.6791C20.1665 64.2345 19.1798 64.5307 18.1709 64.5308H5.15268C4.13334 64.5313 3.13702 64.8339 2.28965 65.4005C1.44227 65.9671 0.781887 66.7722 0.391961 67.714C0.00203429 68.6558 -0.0999278 69.6921 0.0989594 70.6918C0.297847 71.6915 0.788656 72.6099 1.50935 73.3308L11.2624 83.087C11.8914 83.7168 12.3468 84.4985 12.5841 85.3563C12.8215 86.2141 12.8329 87.1188 12.617 87.9822Z" fill="white"/>
<path d="M227.783 64.5305H214.764C213.756 64.5306 212.769 64.2345 211.927 63.679C211.085 63.1235 210.425 62.333 210.028 61.4056L203.735 46.7185C203.338 45.7912 202.678 45.0008 201.836 44.4453C200.994 43.8899 200.007 43.5938 198.999 43.5938C197.99 43.5938 197.004 43.8899 196.162 44.4453C195.32 45.0008 194.66 45.7912 194.263 46.7185L187.969 61.4063C187.573 62.3334 186.913 63.1237 186.071 63.6792C185.23 64.2347 184.244 64.531 183.235 64.5312H170.217C169.198 64.5312 168.201 64.8336 167.353 65.4C166.506 65.9664 165.845 66.7715 165.455 67.7134C165.065 68.6553 164.963 69.6917 165.161 70.6916C165.36 71.6916 165.851 72.6101 166.572 73.3311L176.325 83.0874C176.954 83.7169 177.41 84.4987 177.647 85.3566C177.885 86.2146 177.896 87.1194 177.679 87.9829L173.07 106.424C172.825 107.404 172.874 108.434 173.209 109.387C173.545 110.339 174.153 111.172 174.958 111.782C175.763 112.392 176.73 112.752 177.738 112.817C178.746 112.883 179.751 112.65 180.628 112.149L196.442 103.108C197.221 102.664 198.102 102.43 198.999 102.43C199.896 102.43 200.777 102.664 201.556 103.108L217.37 112.149C218.247 112.65 219.252 112.882 220.26 112.817C221.268 112.752 222.234 112.392 223.039 111.782C223.844 111.172 224.452 110.339 224.788 109.387C225.124 108.434 225.172 107.404 224.927 106.424L220.318 87.9829C220.102 87.1194 220.113 86.2147 220.351 85.3568C220.588 84.4989 221.043 83.7171 221.673 83.0874L231.426 73.3304C232.147 72.6095 232.638 71.6912 232.836 70.6914C233.035 69.6917 232.933 68.6554 232.543 67.7136C232.153 66.7718 231.493 65.9667 230.646 65.4001C229.798 64.8336 228.802 64.5309 227.783 64.5305Z" fill="white"/>
<path d="M41.2381 154.819H55.5929C57.8845 154.819 60.0822 155.729 61.7026 157.35C63.323 158.97 64.2333 161.168 64.2333 163.459V231.15C64.2333 233.442 63.3229 235.64 61.7023 237.26C60.0817 238.881 57.8837 239.791 55.5919 239.791H41.2381C38.9462 239.791 36.7482 238.881 35.1276 237.26C33.5071 235.64 32.5966 233.442 32.5966 231.15V163.461C32.5966 162.326 32.8201 161.202 33.2544 160.154C33.6887 159.105 34.3252 158.153 35.1276 157.35C35.93 156.548 36.8827 155.911 37.9311 155.477C38.9795 155.043 40.1032 154.819 41.2381 154.819Z" fill="white"/>
<path d="M150.018 164.261H126.991L142.399 118.123C142.812 116.837 143.017 115.493 143.006 114.142C143.028 111.518 142.242 108.951 140.755 106.79C139.268 104.629 137.152 102.977 134.694 102.06C132.235 101.143 129.555 101.005 127.015 101.664C124.476 102.323 122.201 103.748 120.499 105.744L74.9101 159.028C73.5621 160.588 72.8235 162.582 72.8306 164.643C72.8792 175.656 72.8877 212.462 72.8898 226.293C72.8902 227.895 73.3384 229.466 74.1838 230.828C75.0292 232.189 76.2381 233.288 77.6743 233.999L79.2953 234.81C85.8948 238.111 93.1724 239.83 100.551 239.83H140.582C144.8 239.804 148.89 238.379 152.211 235.779C155.532 233.179 157.896 229.55 158.932 225.461L168.368 187.72C169.06 184.934 169.108 182.027 168.509 179.22C167.91 176.412 166.68 173.778 164.911 171.517C163.143 169.256 160.883 167.428 158.302 166.171C155.722 164.913 152.889 164.26 150.018 164.261Z" fill="white"/>
</svg>
