<svg width="58" height="58" viewBox="0 0 58 58" fill="none" xmlns="http://www.w3.org/2000/svg">
<path d="M57.125 24.3125V33.6875C57.125 36.2729 55.0229 38.375 52.4375 38.375H51.1613C49.3687 48.9988 40.1273 57.125 29 57.125C27.9636 57.125 27.125 56.2864 27.125 55.25C27.125 54.2136 27.9636 53.375 29 53.375C39.3381 53.375 47.75 44.9631 47.75 34.625V23.375C47.75 13.0369 39.3381 4.625 29 4.625C18.6619 4.625 10.25 13.0369 10.25 23.375V36.5C10.25 37.5364 9.41138 38.375 8.375 38.375H5.5625C2.97705 38.375 0.875 36.2729 0.875 33.6875V24.3125C0.875 21.7271 2.97705 19.625 5.5625 19.625H6.83875C8.63135 9.00122 17.8727 0.875 29 0.875C40.1273 0.875 49.3687 9.00122 51.1613 19.625H52.4375C55.0229 19.625 57.125 21.7271 57.125 24.3125ZM29 8.375C20.7291 8.375 14 15.1041 14 23.375V32.75C14 41.0209 20.7291 47.75 29 47.75C37.2709 47.75 44 41.0209 44 32.75V23.375C44 15.1041 37.2709 8.375 29 8.375Z" fill="#007EA7"/>
</svg>
