<svg width="60" height="60" viewBox="0 0 60 60" fill="none" xmlns="http://www.w3.org/2000/svg">
<g clip-path="url(#clip0_144_550)">
<path d="M44.9939 34.6019C45.6311 34.6081 46.1421 35.119 46.1482 35.7562V36.9105H47.3087C49.2018 36.9105 50.7655 38.4743 50.7655 40.3735C50.7655 41.0107 50.2545 41.5278 49.6173 41.534C48.974 41.534 48.4507 41.0168 48.4569 40.3735C48.4569 39.724 47.9582 39.2192 47.3087 39.2192H42.6853C42.0358 39.2192 41.5248 39.724 41.5248 40.3735V42.6821C41.5248 43.3316 42.0358 43.8426 42.6853 43.8426H47.3087C49.2018 43.8426 50.7655 45.4002 50.7655 47.2994V49.6081C50.7655 51.5073 49.2018 53.071 47.3087 53.071H46.1482V54.2253C46.1421 54.8625 45.6311 55.3797 44.9939 55.3797C44.3567 55.3797 43.8396 54.8687 43.8334 54.2253V53.071H42.6853C40.786 53.071 39.2161 51.5073 39.2161 49.6081C39.2161 48.9647 39.7394 48.4476 40.3766 48.4476C41.0138 48.4537 41.5309 48.9709 41.5248 49.6081C41.5248 50.2576 42.0358 50.7624 42.6853 50.7624H47.3087C47.9582 50.7624 48.4569 50.2576 48.4569 49.6081V47.2994C48.4569 46.6499 47.9582 46.1389 47.3087 46.1389H42.6853C40.786 46.1389 39.2161 44.5814 39.2161 42.6821V40.3735C39.2161 38.4743 40.786 36.9105 42.6853 36.9105H43.8334V35.7562C43.8396 35.119 44.3567 34.6019 44.9939 34.6019ZM44.9939 29.9846C36.6905 29.9846 29.9939 36.6874 29.9939 44.9908C29.9939 53.2942 36.692 59.9969 44.9939 59.9969C53.2958 59.9969 60.0001 53.2942 60.0001 44.9908C60.0001 36.6874 53.2958 29.9846 44.9939 29.9846Z" fill="#007EA7"/>
<path d="M26.5186 6.90447C27.1558 6.89831 27.679 7.41545 27.679 8.05263V22.0553C29.6629 22.5724 31.142 24.387 31.142 26.5279C31.142 29.0643 29.0565 31.1329 26.5186 31.1329C24.3839 31.1329 22.5693 29.66 22.0521 27.6761H11.5186C10.8814 27.6761 10.3704 27.1589 10.3643 26.5279C10.3643 25.8907 10.8814 25.3674 11.5186 25.3674H22.0521C22.4723 23.756 23.7528 22.4755 25.3704 22.0553V8.05263C25.3766 7.4216 25.8875 6.90447 26.5186 6.90447ZM25.3704 0.00317383C18.9016 0.278671 13.0392 2.85819 8.5789 6.94602L11.0138 9.38087C11.4709 9.83182 11.4709 10.566 11.0138 11.0169C10.5628 11.4679 9.8348 11.4679 9.38385 11.0169L6.949 8.57592C2.85502 13.0362 0.275498 18.8986 0 25.3674H3.43833C4.07552 25.3674 4.59265 25.8907 4.5865 26.5279C4.5865 27.1589 4.06936 27.6761 3.43833 27.6761H0C0.269341 34.1449 2.85502 40.0073 6.94285 44.4676L9.38385 42.0327C9.60086 41.8173 9.89483 41.6957 10.1965 41.6895C10.5028 41.6895 10.7967 41.8173 11.0138 42.0327C11.4585 42.4837 11.4585 43.2117 11.0138 43.6626L8.5789 46.0975C13.3039 50.4269 19.5988 53.0711 26.5186 53.0711C27.559 53.0711 28.5871 53.0111 29.5906 52.891C28.3701 50.5224 27.679 47.8351 27.679 44.9909C27.679 35.4439 35.4468 27.6761 44.9938 27.6761C47.8381 27.6761 50.5253 28.3671 52.9002 29.5876C53.0141 28.5841 53.0741 27.5622 53.0741 26.5279C53.0741 19.602 50.4284 13.3071 46.1005 8.58208L43.6656 11.0169C43.2147 11.474 42.4805 11.474 42.0296 11.0169C41.5786 10.566 41.5786 9.83182 42.0296 9.38087L44.4644 6.94602C40.0041 2.85819 34.1479 0.278671 27.679 0.00317383V3.43535C27.6852 4.07254 27.1619 4.59583 26.5186 4.58967C25.8814 4.58967 25.3704 4.07254 25.3704 3.43535V0.00317383Z" fill="#007EA7"/>
<path d="M26.5247 24.2192C27.8114 24.2192 28.8333 25.235 28.8333 26.5279C28.8333 27.8146 27.8114 28.8242 26.5247 28.8242C25.2319 28.8242 24.2161 27.8146 24.2161 26.5279C24.2161 25.235 25.2319 24.2192 26.5247 24.2192Z" fill="#007EA7"/>
</g>
<defs>
<clipPath id="clip0_144_550">
<rect width="60" height="60" fill="white"/>
</clipPath>
</defs>
</svg>
